- 
http://www.Speed.Cd 
       
http://www.Speed.Cd      fast  and The Hottest Private Tracker on the net

(((--Submit for invite!!--)))

Please Seed back to make the speed Faster!!!

------------------nfo--------------------------
-
                                                                             
 :::  :::  :::::  :::   :::   :::::    ::: :::     :::    :::::    
 :::  :::  ::::::::::  :::   :::::::    ::::: :::     :::   :::::::   
 :::  ::::::::::::::::::::::::::: ::: ::: :::     :::  :::::::::  
 :::  ::: :::::::::::: :::::: ::: ::: :::     :::  ::::::  
 :::  ::: ::: :::::::::: :::  ::: ::: :::  :::     :::  ::: :::  
 :::  ::: ::: :::::::::  :::  ::: ::: :::  :::  :  :::  ::: :::  
 :::  ::: ::: :::::::::: :::  ::: ::: :::  ::: ::: :::  ::: :::  
 :::  ::: ::: ::::::::::::  ::: ::: :::  ::: : : :::  ::: :::  
 :::..::: ::: :::::: ::::::  ::: ::: :::  ::::: :::::  ::: :::  
 ::::::::: :::::: ::::::  ::: ::::: ::::: :::::  ::: :::  
  ::::  ::: ::::::  ::::::  ::: :::  ::::   ::::  ::: :::  

                                                                              
                  NOTES                    
                                                                              
                  NOTES                    
                                                                              
                                                                              
                                                                              
 Encoded By .......:UnKnOwN                                                   
 Runtime ..........:1:54                                                      
 IMDb URL .........:http://www.imdb.com/title/tt1514041/                      
 Language .........:English                                                   
 File Size ........:1.37gb                                                    
 Release Date ......... 2011                                                  
 Source       ......... Your Stash(:                                          
 File Type    ......... Single AVI                                            
 PS3 Compatible ....... Go for It                                             
 Genre        ......... Thriller/Comedy                                       
                                                                              
                                                                              
 Video                                                                        
  ID                               : 0                                        
  Format                           : MPEG-4 Visual                            
  Format profile                   : Advanced Simple@L5                        
  Format settings, BVOP            : Yes                                       
  Format settings, QPel            : No                                        
  Format settings, GMC             : No warppoints                             
  Format settings, Matrix          : Custom                                    
  Codec ID                         : XVID                                      
  Codec ID/Hint                    : XviD                                      
  Duration                         : 1h 24mn                                   
  Bit rate                         : 1 398 Kbps                                
  Width                            : 720pixels                                 
  Height                           : 304pixels                                 
  Display aspect ratio             : 2.3.5                                     
  Frame rate                       : 23.976fps                                 
  Color space                      : YUV                                       
  Chroma subsampling               : 4:2:0                                     
  Bit depth                        : 8 bits                                    
  Scan type                        : Progressive                               
  Bits/(Pixel*Frame)               : 0.234                                     
  Stream size                      : 892 MiB (86%)                             
  Writing library                  : XviD 1.2.1 (UTC 2008-12-04)              
                                                                              
                                                                              
 Audio                                                                         
 ID                               : 1                                          
 Format                           : AC3                                        
 Format/Info                      : Version 1                                  
 Mode extension                   : Layer 3                                    
 Codec ID                         : 2000                                       
 Duration                         : 1h 54mn                                    
 Bit rate mode                    : Constant                                   
 Bit rate                         : 448Kbps                                    
 Channel(s)                       : 6 channels                                 
 Channel positions                : Front: L C R, Side: L R, LFE               
 Sampling rate                    : 48.0 KHz                                   
 Bit depth                        : 16 bits                                    
 Stream size                      : 302 MiB                                    
 Alignment                        : Aligned on interleaves                     
 Interleave, duration             : 42 ms (1.00 video frame)                   
 Interleave, preload duration     : 512 ms                                    
                                                                              
                                                                              
                                                                              
                                                                               
                                                                              
                                                                              
                                                                              
                                 SYSPNOSIS                                    
  While Jo is chained down in a dead end supermarket job, her friends are all 
      out on their own separate adventures,Cassandra  is jetting off to       
         New York to meet her Internet boyfriend; Kerrys is on a              
  one woman crusade fighting for female liberation and Shannon is on a one    a   
                      way trip to meet her maker.                             
                                                                              
                                                                              
                              RELEASE INFO                                    
                                                                              
                   Lesbians,Murder,Conspiracy and Silent BOB                  
                      Good Staurday night family fun                          
                                                                              
                                                                              
                                                                              
                                                                              
                                                                              
                                                                              

                 
              
                                                                              
                                 LOOKING FOR                                  
                                                                              
                                   Superly                                    
                                                                              
                                                                              
                                                                              
                                                                              

               GREETZ & RESPECT               
  
                          NOBODY YET WILL LET YOU KNOW                        
                                                                              
                          MORE GOODIES COMING REAL SOON